<svg width="12" height="12" viewBox="0 0 12 12" fill="none" xmlns="http://www.w3.org/2000/svg">
<path fill-rule="evenodd" clip-rule="evenodd" d="M1.75735 0.343148C1.36683 -0.0473762 0.733665 -0.0473762 0.34314 0.343148C-0.0473838 0.733672 -0.0473838 1.36684 0.34314 1.75736L4.58578 6L0.34314 10.2426C-0.0473839 10.6332 -0.0473839 11.2663 0.34314 11.6569C0.733665 12.0474 1.36683 12.0474 1.75735 11.6569L5.99999 7.41422L10.2426 11.6569C10.6332 12.0474 11.2663 12.0474 11.6568 11.6569C12.0474 11.2663 12.0474 10.6332 11.6568 10.2426L7.41421 6L11.6568 1.75736C12.0474 1.36684 12.0474 0.733673 11.6568 0.343148C11.2663 -0.0473759 10.6332 -0.0473759 10.2426 0.343148L5.99999 4.58579L1.75735 0.343148Z" fill="#010F07"/>
</svg>
