<svg width="23" height="24" viewBox="0 0 23 24" fill="none" xmlns="http://www.w3.org/2000/svg">
<path fill-rule="evenodd" clip-rule="evenodd" d="M6.33325 14C6.33325 17.6819 9.31802 20.6667 12.9999 20.6667C16.6818 20.6667 19.6666 17.6819 19.6666 14C19.6666 10.3181 16.6818 7.33334 12.9999 7.33334C9.31802 7.33334 6.33325 10.3181 6.33325 14ZM13.0351 9.92594H12.9725C12.779 9.92594 12.6181 10.0749 12.6032 10.2679L12.2827 14.4356C12.269 14.6127 12.3831 14.7745 12.5545 14.8213L15.9759 15.7544C16.0002 15.761 16.0252 15.7644 16.0504 15.7644C16.2066 15.7644 16.3332 15.6377 16.3332 15.4815V15.3261C16.3332 15.1931 16.262 15.0704 16.1466 15.0045L13.7407 13.6296L13.4036 10.2595C13.3847 10.0701 13.2254 9.92594 13.0351 9.92594Z" fill="#22A45D"/>
<path opacity="0.2" fill-rule="evenodd" clip-rule="evenodd" d="M11.2961 24C17.5348 24 20.7096 13.8 15.0615 9.6C9.41345 5.4 18.79 0 12.5513 0C6.31258 0 0 7.23532 0 13.2C0 19.1647 5.05745 24 11.2961 24Z" fill="#22A45D"/>
</svg>
