<svg width="20" height="20" viewBox="0 0 20 20" fill="none" xmlns="http://www.w3.org/2000/svg">
<path fill-rule="evenodd" clip-rule="evenodd" d="M4.53353 12.1174C4.534 12.1676 4.53441 12.2122 4.53441 12.2507C4.53441 12.4379 4.53345 12.6972 4.53245 12.9648C4.53139 13.2499 4.5303 13.5442 4.5303 13.7704H4.68054C4.96499 13.7704 5.21934 13.5834 5.31793 13.3018L5.31796 13.3018C6.15394 10.9138 7.33522 9.46349 8.86181 8.95085C9.92668 8.59326 11.0987 8.48279 12.7441 8.43503V12.1285C12.7441 12.3092 12.8088 12.4833 12.9251 12.6159C13.1801 12.9065 13.61 12.924 13.8854 12.6548L19.7822 6.89041C19.7966 6.87629 19.8105 6.8615 19.8237 6.8461C20.0759 6.5527 20.055 6.09908 19.777 5.8329L13.8803 0.186045C13.7552 0.0663204 13.5925 0 13.4237 0C13.0484 0 12.7441 0.321141 12.7441 0.717289V4.43347C10.1526 4.55504 7.98563 4.82164 6.53768 6.3587C4.50013 8.52176 4.52518 11.2184 4.53353 12.1174ZM8.96999 1.82869C8.96999 1.30049 8.56434 0.872304 8.06393 0.872304H3.62424C1.62263 0.872304 0 2.58506 0 4.69784V16.1745C0 18.2872 1.62263 20 3.62424 20H14.497C16.4986 20 18.1212 18.2872 18.1212 16.1745V14.2617C18.1212 13.7335 17.7155 13.3053 17.2151 13.3053C16.7147 13.3053 16.3091 13.7335 16.3091 14.2617V16.1745C16.3091 17.2309 15.4978 18.0872 14.497 18.0872H3.62424C2.62343 18.0872 1.81212 17.2309 1.81212 16.1745V4.69784C1.81212 3.64145 2.62343 2.78507 3.62424 2.78507H8.06393C8.56434 2.78507 8.96999 2.35689 8.96999 1.82869Z" fill="white"/>
</svg>
